<svg xmlns="http://www.w3.org/2000/svg" version="1.1" xmlns:xlink="http://www.w3.org/1999/xlink" width="2000" height="77" viewBox="0 0 2000 77"><svg xml:space="preserve" width="2000" height="77" data-version="2" data-id="lg_yrsJoaDK7OjtrcKMa0" viewBox="0 0 558 77" x="0" y="0"><rect width="100%" height="100%" fill="transparent"></rect><path fill="#fff" d="M16.66 10.735v60.55q0 4.46-5.49 4.46-5.48 0-5.48-4.46V6.925q0-2.14 1.21-3.86 1.2-1.72 4.65-1.72h31.62q3.34 0 3.53 4.65.19 4.74-3.53 4.74zm23.81 26.04q0 1.59-.61 3.03-.6 1.44-1.67 2.46-1.07 1.02-2.46 1.63-1.4.6-3.07.6-3.17 0-5.4-2.23-2.23-2.23-2.23-5.49 0-3.25 2.23-5.48 2.23-2.23 5.4-2.23 1.67 0 3.07.6 1.39.6 2.46 1.67 1.07 1.07 1.67 2.47.61 1.39.61 2.97m27.81-31.43v65.94q0 4.46-5.58 4.46-5.49 0-5.49-4.46V5.345q0-4.46 5.49-4.46 5.58 0 5.58 4.46m25.94 5.39v60.55q0 4.46-5.48 4.46-5.49 0-5.49-4.46V6.925q0-2.14 1.21-3.86 1.21-1.72 4.65-1.72h31.62q3.35 0 3.53 4.65.19 4.74-3.53 4.74zm23.81 26.04q0 1.59-.6 3.03-.61 1.44-1.68 2.46-1.07 1.02-2.46 1.63-1.4.6-3.07.6-3.16 0-5.4-2.23-2.23-2.23-2.23-5.49 0-3.25 2.23-5.48 2.24-2.23 5.4-2.23 1.67 0 3.07.6 1.39.6 2.46 1.67 1.07 1.07 1.68 2.47.6 1.39.6 2.97m41.2-26.04v60.73q0 4.47-5.58 4.47-5.49 0-5.49-4.47v-60.73h-16.27q-3.35 0-3.54-4.74 0-4.65 3.54-4.65h43.61q3.54 0 3.35 4.65 0 4.74-3.35 4.74zm67.24 60.55V5.345q0-4.46 5.49-4.46 5.58 0 5.58 4.46v65.94q0 4.46-5.58 4.46-5.49 0-5.49-4.46M198.2 5.345v65.94q0 4.46-5.58 4.46-5.49 0-5.49-4.46V5.345q0-4.46 5.49-4.46 5.58 0 5.58 4.46m21.76 31.43q0 3.26-2.23 5.49-2.24 2.23-5.49 2.23-3.16 0-5.39-2.23-2.24-2.23-2.24-5.49 0-3.25 2.24-5.48 2.23-2.23 5.39-2.23 3.25 0 5.49 2.23 2.23 2.23 2.23 5.48m42.22-26.04v60.55q0 4.46-5.49 4.46-5.48 0-5.48-4.46V6.925q0-2.14 1.21-3.86 1.2-1.72 4.65-1.72h31.62q3.34 0 3.53 4.65.19 4.74-3.53 4.74zm23.81 26.04q0 1.59-.61 3.03-.6 1.44-1.67 2.46-1.07 1.02-2.46 1.63-1.4.6-3.07.6-3.17 0-5.4-2.23-2.23-2.23-2.23-5.49 0-3.25 2.23-5.48 2.23-2.23 5.4-2.23 1.67 0 3.07.6 1.39.6 2.46 1.67 1.07 1.07 1.67 2.47.61 1.39.61 2.97m60.26 37.3-17.57-29.48h-7.17q-1.58 0-2.46-1.26-.88-1.25-.88-3.39 0-4.75 3.9-4.75h10.88q3.44 0 4.84-1.95 1.39-1.95 1.39-4.28v-11.99q0-2.33-1.39-4.28-1.4-1.96-4.84-1.96h-19.62v60.64q0 4.46-5.49 4.46-5.48 0-5.48-4.46V6.925q0-3.35 1.72-4.46 1.72-1.12 4.14-1.12h27.06q2.42 0 5.02 1.02 2.6 1.03 5.02 2.61h-.09q2.42 1.77 3.72 4.6 1.3 2.84 1.3 6.56v13.58q0 7.53-5.02 11.25-1.02.74-2.19 1.39-1.16.66-2.37 1.31l14.88 24.55q.28.46.56 1.21.28.74.28 1.21 0 2.23-3.16 4.27v-.09q-2.14 1.3-3.63 1.3-2.14 0-3.44-2.14zm63.71-1.12-20.46-62.49-20.37 62.49v-.09q-.56 1.39-1.53 2.28-.98.88-2.38.88-.74 0-1.44-.14-.69-.14-1.44-.32h.09q-5.3-1.68-3.9-5.96l21.2-64.45q.47-1.48 1.63-2.51 1.16-1.02 2.74-1.21 1.58-.27 3.07-.41 1.49-.14 2.33-.14.83 0 2.32.14 1.49.14 3.07.32 1.3.19 2.56 1.4 1.25 1.21 1.91 2.41 5.2 16 10.55 32.23 5.35 16.23 10.56 32.22 1.3 4.28-3.91 5.96-.74.18-1.35.32-.6.14-1.35.14-1.3 0-2.37-.88-1.07-.89-1.53-2.28zm-13.49-20.09q0 2.98-2.09 5.07-2.09 2.09-5.07 2.09-2.97 0-5.02-2.09-2.05-2.09-2.05-5.07 0-2.97 2.05-5.07 2.05-2.09 5.02-2.09 2.98 0 5.07 2.09 2.09 2.1 2.09 5.07M485.85.885q2.97 0 6.51 1.39 3.25 1.3 3.25 4.93v64.08q0 4.46-5.49 4.46-5.48 0-5.48-4.46v-47.8l-2.7-.28-3.72 12.09-11.16 37.2q-1.02 3.25-5.02 3.16-1.77-.09-3.07-.93-1.3-.84-1.77-2.42l-6.69-21.67q-2.05-6.42-4.1-13.07-2.04-6.64-4.46-14.74l-2.7.38v48.08q0 4.46-5.48 4.46-5.49 0-5.49-4.46V7.205q0-3.53 3.25-4.93 3.44-1.39 6.61-1.3 1.39 0 2.88.37t2.79 1.07q1.3.7 2.32 1.77 1.03 1.07 1.59 2.46l14.6 49.76q1.58-5.49 3.34-11.91 1.77-6.41 3.63-13.02l3.68-13.06q1.81-6.47 3.39-12.05.56-1.3 1.58-2.32 1.02-1.02 2.33-1.72 1.3-.7 2.74-1.07 1.44-.37 2.84-.37m62.86 74.4h-34.03q-3.45 0-4.65-1.77-1.21-1.77-1.21-3.91V6.925q0-2.14 1.21-3.86 1.2-1.72 4.65-1.72h32.36q3.44 0 3.63 4.65.18 4.74-3.63 4.74h-27.25v55.15h28.92q3.44 0 3.54 4.56.18 4.84-3.54 4.84m-5.11-38.51q0 3.26-2.28 5.49-2.28 2.23-5.53 2.23-3.17 0-5.4-2.23-2.23-2.23-2.23-5.49 0-3.25 2.23-5.48 2.23-2.23 5.4-2.23 3.25 0 5.53 2.23 2.28 2.23 2.28 5.48"></path></svg></svg>